<?xml version="1.0" encoding="UTF-8" standalone="no"?>
<svg
   xmlns:dc="http://purl.org/dc/elements/1.1/"
   xmlns:cc="http://creativecommons.org/ns#"
   xmlns:rdf="http://www.w3.org/1999/02/22-rdf-syntax-ns#"
   xmlns:svg="http://www.w3.org/2000/svg"
   xmlns="http://www.w3.org/2000/svg"
   version="1.1"
   id="svg4138"
   viewBox="0 0 65 51"
   height="51"
   width="65">
  <defs
     id="defs4140" />
  <metadata
     id="metadata4143">
    <rdf:RDF>
      <cc:Work
         rdf:about="">
        <dc:format>image/svg+xml</dc:format>
        <dc:type
           rdf:resource="http://purl.org/dc/dcmitype/StillImage" />
        <dc:title></dc:title>
      </cc:Work>
    </rdf:RDF>
  </metadata>
  <g
     transform="matrix(0.83333333,0,0,0.83333333,-0.61054726,-827.20183)"
     id="layer1">
    <path
       id="path4"
       d="m 66.370829,1027.9218 0,22.4475 q 0,1.2158 -0.88854,2.1044 -0.888547,0.8885 -2.104447,0.8885 l -17.95791,0 0,-17.9579 -11.971943,0 0,17.9579 -17.957912,0 q -1.2159,0 -2.10444,-0.8885 -0.888548,-0.8886 -0.888548,-2.1044 l 0,-22.4475 q 0,-0.047 0.0234,-0.1403 0.0234,-0.093 0.0234,-0.1402 l 26.890105,-22.1669 26.890103,22.1669 q 0.0468,0.093 0.0468,0.2805 z m 10.428683,-3.2268 -2.899455,3.4607 q -0.374123,0.4209 -0.982073,0.5144 l -0.140295,0 q -0.60795,0 -0.982072,-0.3274 l -32.361653,-26.9836 -32.3616561,26.9836 q -0.5611845,0.3741 -1.1223697,0.3274 -0.60795,-0.093 -0.9820733,-0.5144 l -2.8994542,-3.4607 q -0.3741233,-0.4677 -0.3273578,-1.0989 0.046763,-0.6314 0.5144198,-1.0055 L 35.879789,994.5781 q 1.496498,-1.2159 3.554175,-1.2159 2.057678,0 3.554168,1.2159 l 11.410755,9.5402 0,-9.1193 q 0,-0.65475 0.420892,-1.07565 0.420885,-0.42083 1.075598,-0.42083 l 8.978962,0 q 0.654713,0 1.075598,0.42083 0.420892,0.4209 0.420892,1.07565 l 0,19.0803 10.241618,8.5113 q 0.467655,0.3741 0.514425,1.0054 0.0468,0.6313 -0.32736,1.099 z" />
  </g>
</svg>
